<mxfile host="app.diagrams.net" modified="2021-09-09T05:06:14.439Z" agent="5.0 (Windows)" etag="QousAoi9CVgQDDpsXCyY" version="15.1.2" type="github">
  <diagram id="Q3dzWEZGffisFMrJan4V" name="Page-1">
    <mxGraphModel dx="1730" dy="940" grid="0" gridSize="10" guides="1" tooltips="1" connect="1" arrows="1" fold="1" page="0" pageScale="1" pageWidth="1100" pageHeight="850" math="0" shadow="0">
      <root>
        <mxCell id="0" />
        <mxCell id="1" parent="0" />
        <mxCell id="KTEhq3X3tkaiahgWx3Sp-3" value="" style="rounded=0;whiteSpace=wrap;html=1;fillColor=#dae8fc;strokeColor=none;" parent="1" vertex="1">
          <mxGeometry x="160" y="400" width="320" height="280" as="geometry" />
        </mxCell>
        <mxCell id="KTEhq3X3tkaiahgWx3Sp-4" value="" style="rounded=0;whiteSpace=wrap;html=1;fillColor=#d5e8d4;strokeColor=none;" parent="1" vertex="1">
          <mxGeometry x="40" y="380" width="80" height="240" as="geometry" />
        </mxCell>
        <mxCell id="KTEhq3X3tkaiahgWx3Sp-6" value="" style="rounded=0;whiteSpace=wrap;html=1;fillColor=#fff2cc;strokeColor=none;" parent="1" vertex="1">
          <mxGeometry x="40" y="640" width="80" height="80" as="geometry" />
        </mxCell>
        <mxCell id="KTEhq3X3tkaiahgWx3Sp-8" value="" style="ellipse;whiteSpace=wrap;html=1;aspect=fixed;" parent="1" vertex="1">
          <mxGeometry x="50" y="390" width="60" height="60" as="geometry" />
        </mxCell>
        <mxCell id="KTEhq3X3tkaiahgWx3Sp-13" value="" style="ellipse;whiteSpace=wrap;html=1;aspect=fixed;" parent="1" vertex="1">
          <mxGeometry x="50" y="470" width="60" height="60" as="geometry" />
        </mxCell>
        <mxCell id="KTEhq3X3tkaiahgWx3Sp-14" value="" style="ellipse;whiteSpace=wrap;html=1;aspect=fixed;" parent="1" vertex="1">
          <mxGeometry x="50" y="550" width="60" height="60" as="geometry" />
        </mxCell>
        <mxCell id="KTEhq3X3tkaiahgWx3Sp-15" value="" style="ellipse;whiteSpace=wrap;html=1;aspect=fixed;" parent="1" vertex="1">
          <mxGeometry x="50" y="650" width="60" height="60" as="geometry" />
        </mxCell>
        <mxCell id="KTEhq3X3tkaiahgWx3Sp-43" value="" style="rounded=0;whiteSpace=wrap;html=1;fillColor=#ffcc99;strokeColor=none;" parent="1" vertex="1">
          <mxGeometry x="520" y="420" width="80" height="240" as="geometry" />
        </mxCell>
        <mxCell id="KTEhq3X3tkaiahgWx3Sp-44" value="" style="ellipse;whiteSpace=wrap;html=1;aspect=fixed;" parent="1" vertex="1">
          <mxGeometry x="530" y="430" width="60" height="60" as="geometry" />
        </mxCell>
        <mxCell id="KTEhq3X3tkaiahgWx3Sp-45" value="" style="ellipse;whiteSpace=wrap;html=1;aspect=fixed;" parent="1" vertex="1">
          <mxGeometry x="530" y="510" width="60" height="60" as="geometry" />
        </mxCell>
        <mxCell id="KTEhq3X3tkaiahgWx3Sp-46" value="" style="ellipse;whiteSpace=wrap;html=1;aspect=fixed;" parent="1" vertex="1">
          <mxGeometry x="530" y="590" width="60" height="60" as="geometry" />
        </mxCell>
        <mxCell id="KTEhq3X3tkaiahgWx3Sp-47" value="" style="rounded=0;whiteSpace=wrap;html=1;fillColor=#d5e8d4;strokeColor=none;" parent="1" vertex="1">
          <mxGeometry x="520" y="100" width="80" height="240" as="geometry" />
        </mxCell>
        <mxCell id="KTEhq3X3tkaiahgWx3Sp-48" value="" style="ellipse;whiteSpace=wrap;html=1;aspect=fixed;" parent="1" vertex="1">
          <mxGeometry x="530" y="110" width="60" height="60" as="geometry" />
        </mxCell>
        <mxCell id="KTEhq3X3tkaiahgWx3Sp-49" value="" style="ellipse;whiteSpace=wrap;html=1;aspect=fixed;" parent="1" vertex="1">
          <mxGeometry x="530" y="190" width="60" height="60" as="geometry" />
        </mxCell>
        <mxCell id="KTEhq3X3tkaiahgWx3Sp-50" value="" style="ellipse;whiteSpace=wrap;html=1;aspect=fixed;" parent="1" vertex="1">
          <mxGeometry x="530" y="270" width="60" height="60" as="geometry" />
        </mxCell>
        <mxCell id="KTEhq3X3tkaiahgWx3Sp-69" value="" style="rounded=0;whiteSpace=wrap;html=1;fillColor=#fff2cc;strokeColor=none;" parent="1" vertex="1">
          <mxGeometry x="1000" y="320" width="80" height="80" as="geometry" />
        </mxCell>
        <mxCell id="KTEhq3X3tkaiahgWx3Sp-70" value="" style="ellipse;whiteSpace=wrap;html=1;aspect=fixed;" parent="1" vertex="1">
          <mxGeometry x="1010" y="330" width="60" height="60" as="geometry" />
        </mxCell>
        <mxCell id="KTEhq3X3tkaiahgWx3Sp-72" value="" style="edgeStyle=orthogonalEdgeStyle;endArrow=classic;html=1;exitX=0.5;exitY=0;exitDx=0;exitDy=0;rounded=1;fillColor=#cdeb8b;shape=flexArrow;strokeColor=none;" parent="1" source="KTEhq3X3tkaiahgWx3Sp-73" edge="1">
          <mxGeometry width="50" height="50" relative="1" as="geometry">
            <mxPoint x="80" y="370" as="sourcePoint" />
            <mxPoint x="490" y="220" as="targetPoint" />
            <Array as="points">
              <mxPoint x="80" y="220" />
            </Array>
          </mxGeometry>
        </mxCell>
        <mxCell id="KTEhq3X3tkaiahgWx3Sp-73" value="" style="rounded=0;whiteSpace=wrap;html=1;gradientColor=none;fillColor=none;dashed=1;strokeWidth=3;strokeColor=#10CC30;" parent="1" vertex="1">
          <mxGeometry x="30" y="370" width="100" height="260" as="geometry" />
        </mxCell>
        <mxCell id="KTEhq3X3tkaiahgWx3Sp-74" value="" style="rounded=0;whiteSpace=wrap;html=1;gradientColor=none;fillColor=none;dashed=1;strokeWidth=3;strokeColor=#10CC30;" parent="1" vertex="1">
          <mxGeometry x="510" y="90" width="100" height="260" as="geometry" />
        </mxCell>
        <mxCell id="KTEhq3X3tkaiahgWx3Sp-243" value="" style="ellipse;whiteSpace=wrap;html=1;aspect=fixed;" parent="1" vertex="1">
          <mxGeometry x="417.5" y="415" width="45" height="45" as="geometry" />
        </mxCell>
        <mxCell id="KTEhq3X3tkaiahgWx3Sp-258" value="" style="ellipse;whiteSpace=wrap;html=1;aspect=fixed;" parent="1" vertex="1">
          <mxGeometry x="337.5" y="415" width="45" height="45" as="geometry" />
        </mxCell>
        <mxCell id="KTEhq3X3tkaiahgWx3Sp-259" value="" style="ellipse;whiteSpace=wrap;html=1;aspect=fixed;" parent="1" vertex="1">
          <mxGeometry x="257.5" y="415" width="45" height="45" as="geometry" />
        </mxCell>
        <mxCell id="KTEhq3X3tkaiahgWx3Sp-260" value="" style="ellipse;whiteSpace=wrap;html=1;aspect=fixed;" parent="1" vertex="1">
          <mxGeometry x="177.5" y="415" width="45" height="45" as="geometry" />
        </mxCell>
        <mxCell id="KTEhq3X3tkaiahgWx3Sp-261" value="" style="ellipse;whiteSpace=wrap;html=1;aspect=fixed;" parent="1" vertex="1">
          <mxGeometry x="417.5" y="465" width="45" height="45" as="geometry" />
        </mxCell>
        <mxCell id="KTEhq3X3tkaiahgWx3Sp-262" value="" style="ellipse;whiteSpace=wrap;html=1;aspect=fixed;" parent="1" vertex="1">
          <mxGeometry x="337.5" y="465" width="45" height="45" as="geometry" />
        </mxCell>
        <mxCell id="KTEhq3X3tkaiahgWx3Sp-263" value="" style="ellipse;whiteSpace=wrap;html=1;aspect=fixed;" parent="1" vertex="1">
          <mxGeometry x="257.5" y="465" width="45" height="45" as="geometry" />
        </mxCell>
        <mxCell id="KTEhq3X3tkaiahgWx3Sp-264" value="" style="ellipse;whiteSpace=wrap;html=1;aspect=fixed;" parent="1" vertex="1">
          <mxGeometry x="177.5" y="465" width="45" height="45" as="geometry" />
        </mxCell>
        <mxCell id="KTEhq3X3tkaiahgWx3Sp-265" value="" style="ellipse;whiteSpace=wrap;html=1;aspect=fixed;" parent="1" vertex="1">
          <mxGeometry x="417.5" y="620" width="45" height="45" as="geometry" />
        </mxCell>
        <mxCell id="KTEhq3X3tkaiahgWx3Sp-266" value="" style="ellipse;whiteSpace=wrap;html=1;aspect=fixed;" parent="1" vertex="1">
          <mxGeometry x="337.5" y="620" width="45" height="45" as="geometry" />
        </mxCell>
        <mxCell id="KTEhq3X3tkaiahgWx3Sp-267" value="" style="ellipse;whiteSpace=wrap;html=1;aspect=fixed;" parent="1" vertex="1">
          <mxGeometry x="257.5" y="620" width="45" height="45" as="geometry" />
        </mxCell>
        <mxCell id="KTEhq3X3tkaiahgWx3Sp-268" value="" style="ellipse;whiteSpace=wrap;html=1;aspect=fixed;" parent="1" vertex="1">
          <mxGeometry x="177.5" y="620" width="45" height="45" as="geometry" />
        </mxCell>
        <mxCell id="KTEhq3X3tkaiahgWx3Sp-269" value="" style="ellipse;whiteSpace=wrap;html=1;aspect=fixed;" parent="1" vertex="1">
          <mxGeometry x="417.5" y="570" width="45" height="45" as="geometry" />
        </mxCell>
        <mxCell id="KTEhq3X3tkaiahgWx3Sp-270" value="" style="ellipse;whiteSpace=wrap;html=1;aspect=fixed;" parent="1" vertex="1">
          <mxGeometry x="337.5" y="570" width="45" height="45" as="geometry" />
        </mxCell>
        <mxCell id="KTEhq3X3tkaiahgWx3Sp-271" value="" style="ellipse;whiteSpace=wrap;html=1;aspect=fixed;" parent="1" vertex="1">
          <mxGeometry x="257.5" y="570" width="45" height="45" as="geometry" />
        </mxCell>
        <mxCell id="KTEhq3X3tkaiahgWx3Sp-272" value="" style="ellipse;whiteSpace=wrap;html=1;aspect=fixed;" parent="1" vertex="1">
          <mxGeometry x="177.5" y="570" width="45" height="45" as="geometry" />
        </mxCell>
        <mxCell id="KTEhq3X3tkaiahgWx3Sp-273" value="" style="rounded=0;whiteSpace=wrap;html=1;fillColor=#dae8fc;strokeColor=none;" parent="1" vertex="1">
          <mxGeometry x="640" y="220" width="320" height="280" as="geometry" />
        </mxCell>
        <mxCell id="KTEhq3X3tkaiahgWx3Sp-274" value="" style="ellipse;whiteSpace=wrap;html=1;aspect=fixed;" parent="1" vertex="1">
          <mxGeometry x="897.5" y="235" width="45" height="45" as="geometry" />
        </mxCell>
        <mxCell id="KTEhq3X3tkaiahgWx3Sp-275" value="" style="ellipse;whiteSpace=wrap;html=1;aspect=fixed;" parent="1" vertex="1">
          <mxGeometry x="817.5" y="235" width="45" height="45" as="geometry" />
        </mxCell>
        <mxCell id="KTEhq3X3tkaiahgWx3Sp-276" value="" style="ellipse;whiteSpace=wrap;html=1;aspect=fixed;" parent="1" vertex="1">
          <mxGeometry x="737.5" y="235" width="45" height="45" as="geometry" />
        </mxCell>
        <mxCell id="KTEhq3X3tkaiahgWx3Sp-277" value="" style="ellipse;whiteSpace=wrap;html=1;aspect=fixed;" parent="1" vertex="1">
          <mxGeometry x="657.5" y="235" width="45" height="45" as="geometry" />
        </mxCell>
        <mxCell id="KTEhq3X3tkaiahgWx3Sp-278" value="" style="ellipse;whiteSpace=wrap;html=1;aspect=fixed;" parent="1" vertex="1">
          <mxGeometry x="897.5" y="285" width="45" height="45" as="geometry" />
        </mxCell>
        <mxCell id="KTEhq3X3tkaiahgWx3Sp-279" value="" style="ellipse;whiteSpace=wrap;html=1;aspect=fixed;" parent="1" vertex="1">
          <mxGeometry x="817.5" y="285" width="45" height="45" as="geometry" />
        </mxCell>
        <mxCell id="KTEhq3X3tkaiahgWx3Sp-280" value="" style="ellipse;whiteSpace=wrap;html=1;aspect=fixed;" parent="1" vertex="1">
          <mxGeometry x="737.5" y="285" width="45" height="45" as="geometry" />
        </mxCell>
        <mxCell id="KTEhq3X3tkaiahgWx3Sp-281" value="" style="ellipse;whiteSpace=wrap;html=1;aspect=fixed;" parent="1" vertex="1">
          <mxGeometry x="657.5" y="285" width="45" height="45" as="geometry" />
        </mxCell>
        <mxCell id="KTEhq3X3tkaiahgWx3Sp-282" value="" style="ellipse;whiteSpace=wrap;html=1;aspect=fixed;" parent="1" vertex="1">
          <mxGeometry x="897.5" y="440" width="45" height="45" as="geometry" />
        </mxCell>
        <mxCell id="KTEhq3X3tkaiahgWx3Sp-283" value="" style="ellipse;whiteSpace=wrap;html=1;aspect=fixed;" parent="1" vertex="1">
          <mxGeometry x="817.5" y="440" width="45" height="45" as="geometry" />
        </mxCell>
        <mxCell id="KTEhq3X3tkaiahgWx3Sp-284" value="" style="ellipse;whiteSpace=wrap;html=1;aspect=fixed;" parent="1" vertex="1">
          <mxGeometry x="737.5" y="440" width="45" height="45" as="geometry" />
        </mxCell>
        <mxCell id="KTEhq3X3tkaiahgWx3Sp-285" value="" style="ellipse;whiteSpace=wrap;html=1;aspect=fixed;" parent="1" vertex="1">
          <mxGeometry x="657.5" y="440" width="45" height="45" as="geometry" />
        </mxCell>
        <mxCell id="KTEhq3X3tkaiahgWx3Sp-286" value="" style="ellipse;whiteSpace=wrap;html=1;aspect=fixed;" parent="1" vertex="1">
          <mxGeometry x="897.5" y="390" width="45" height="45" as="geometry" />
        </mxCell>
        <mxCell id="KTEhq3X3tkaiahgWx3Sp-287" value="" style="ellipse;whiteSpace=wrap;html=1;aspect=fixed;" parent="1" vertex="1">
          <mxGeometry x="817.5" y="390" width="45" height="45" as="geometry" />
        </mxCell>
        <mxCell id="KTEhq3X3tkaiahgWx3Sp-288" value="" style="ellipse;whiteSpace=wrap;html=1;aspect=fixed;" parent="1" vertex="1">
          <mxGeometry x="737.5" y="390" width="45" height="45" as="geometry" />
        </mxCell>
        <mxCell id="KTEhq3X3tkaiahgWx3Sp-289" value="" style="ellipse;whiteSpace=wrap;html=1;aspect=fixed;" parent="1" vertex="1">
          <mxGeometry x="657.5" y="390" width="45" height="45" as="geometry" />
        </mxCell>
        <mxCell id="KTEhq3X3tkaiahgWx3Sp-291" value="" style="rounded=0;whiteSpace=wrap;html=1;gradientColor=none;fillColor=none;strokeWidth=2;strokeColor=#0000FF;dashed=1;" parent="1" vertex="1">
          <mxGeometry x="495" y="47" width="605" height="623" as="geometry" />
        </mxCell>
        <mxCell id="KTEhq3X3tkaiahgWx3Sp-295" value="" style="endArrow=none;html=1;exitX=1;exitY=0.5;exitDx=0;exitDy=0;entryX=0;entryY=0.5;entryDx=0;entryDy=0;strokeColor=#663400;" parent="1" source="KTEhq3X3tkaiahgWx3Sp-8" target="KTEhq3X3tkaiahgWx3Sp-260" edge="1">
          <mxGeometry width="50" height="50" relative="1" as="geometry">
            <mxPoint x="190" y="360" as="sourcePoint" />
            <mxPoint x="240" y="470" as="targetPoint" />
          </mxGeometry>
        </mxCell>
        <mxCell id="KTEhq3X3tkaiahgWx3Sp-296" value="" style="endArrow=none;html=1;entryX=0;entryY=0.5;entryDx=0;entryDy=0;strokeColor=#663400;" parent="1" target="KTEhq3X3tkaiahgWx3Sp-264" edge="1">
          <mxGeometry width="50" height="50" relative="1" as="geometry">
            <mxPoint x="110" y="420" as="sourcePoint" />
            <mxPoint x="187.5000000000016" y="447.5" as="targetPoint" />
          </mxGeometry>
        </mxCell>
        <mxCell id="KTEhq3X3tkaiahgWx3Sp-297" value="" style="endArrow=none;html=1;entryX=0;entryY=0.5;entryDx=0;entryDy=0;strokeColor=#663400;" parent="1" target="KTEhq3X3tkaiahgWx3Sp-272" edge="1">
          <mxGeometry width="50" height="50" relative="1" as="geometry">
            <mxPoint x="110" y="420" as="sourcePoint" />
            <mxPoint x="187.5000000000016" y="497.5" as="targetPoint" />
          </mxGeometry>
        </mxCell>
        <mxCell id="KTEhq3X3tkaiahgWx3Sp-298" value="" style="endArrow=none;html=1;entryX=0;entryY=0.5;entryDx=0;entryDy=0;strokeColor=#663400;" parent="1" target="KTEhq3X3tkaiahgWx3Sp-268" edge="1">
          <mxGeometry width="50" height="50" relative="1" as="geometry">
            <mxPoint x="110" y="420" as="sourcePoint" />
            <mxPoint x="187.5000000000016" y="602.5" as="targetPoint" />
          </mxGeometry>
        </mxCell>
        <mxCell id="KTEhq3X3tkaiahgWx3Sp-300" value="" style="endArrow=none;html=1;entryX=0;entryY=0.5;entryDx=0;entryDy=0;exitX=1;exitY=0.5;exitDx=0;exitDy=0;strokeColor=#663400;" parent="1" source="KTEhq3X3tkaiahgWx3Sp-13" target="KTEhq3X3tkaiahgWx3Sp-264" edge="1">
          <mxGeometry width="50" height="50" relative="1" as="geometry">
            <mxPoint x="120" y="510" as="sourcePoint" />
            <mxPoint x="187.5000000000016" y="447.5" as="targetPoint" />
          </mxGeometry>
        </mxCell>
        <mxCell id="KTEhq3X3tkaiahgWx3Sp-301" value="" style="endArrow=none;html=1;entryX=0;entryY=0.5;entryDx=0;entryDy=0;exitX=1;exitY=0.5;exitDx=0;exitDy=0;strokeColor=#663400;" parent="1" source="KTEhq3X3tkaiahgWx3Sp-13" target="KTEhq3X3tkaiahgWx3Sp-272" edge="1">
          <mxGeometry width="50" height="50" relative="1" as="geometry">
            <mxPoint x="120" y="510" as="sourcePoint" />
            <mxPoint x="187.5000000000016" y="497.5" as="targetPoint" />
          </mxGeometry>
        </mxCell>
        <mxCell id="KTEhq3X3tkaiahgWx3Sp-302" value="" style="endArrow=none;html=1;entryX=0;entryY=0.5;entryDx=0;entryDy=0;exitX=1;exitY=0.5;exitDx=0;exitDy=0;strokeColor=#663400;" parent="1" source="KTEhq3X3tkaiahgWx3Sp-13" target="KTEhq3X3tkaiahgWx3Sp-268" edge="1">
          <mxGeometry width="50" height="50" relative="1" as="geometry">
            <mxPoint x="120" y="510" as="sourcePoint" />
            <mxPoint x="187.5000000000016" y="602.5" as="targetPoint" />
          </mxGeometry>
        </mxCell>
        <mxCell id="KTEhq3X3tkaiahgWx3Sp-303" value="" style="endArrow=none;html=1;entryX=0;entryY=0.5;entryDx=0;entryDy=0;exitX=1;exitY=0.5;exitDx=0;exitDy=0;strokeColor=#663400;" parent="1" source="KTEhq3X3tkaiahgWx3Sp-14" target="KTEhq3X3tkaiahgWx3Sp-260" edge="1">
          <mxGeometry width="50" height="50" relative="1" as="geometry">
            <mxPoint x="120" y="510" as="sourcePoint" />
            <mxPoint x="187.5000000000016" y="447.5" as="targetPoint" />
          </mxGeometry>
        </mxCell>
        <mxCell id="KTEhq3X3tkaiahgWx3Sp-304" value="" style="endArrow=none;html=1;entryX=0;entryY=0.5;entryDx=0;entryDy=0;strokeColor=#663400;" parent="1" target="KTEhq3X3tkaiahgWx3Sp-264" edge="1">
          <mxGeometry width="50" height="50" relative="1" as="geometry">
            <mxPoint x="110" y="580" as="sourcePoint" />
            <mxPoint x="187.5000000000016" y="447.5" as="targetPoint" />
          </mxGeometry>
        </mxCell>
        <mxCell id="KTEhq3X3tkaiahgWx3Sp-305" value="" style="endArrow=none;html=1;entryX=0;entryY=0.5;entryDx=0;entryDy=0;strokeColor=#663400;" parent="1" target="KTEhq3X3tkaiahgWx3Sp-272" edge="1">
          <mxGeometry width="50" height="50" relative="1" as="geometry">
            <mxPoint x="110" y="580" as="sourcePoint" />
            <mxPoint x="187.5000000000016" y="497.5" as="targetPoint" />
          </mxGeometry>
        </mxCell>
        <mxCell id="KTEhq3X3tkaiahgWx3Sp-306" value="" style="endArrow=none;html=1;entryX=0;entryY=0.5;entryDx=0;entryDy=0;exitX=1;exitY=0.5;exitDx=0;exitDy=0;strokeColor=#663400;" parent="1" source="KTEhq3X3tkaiahgWx3Sp-14" target="KTEhq3X3tkaiahgWx3Sp-268" edge="1">
          <mxGeometry width="50" height="50" relative="1" as="geometry">
            <mxPoint x="120" y="590" as="sourcePoint" />
            <mxPoint x="187.5000000000016" y="602.5" as="targetPoint" />
          </mxGeometry>
        </mxCell>
        <mxCell id="KTEhq3X3tkaiahgWx3Sp-307" value="" style="endArrow=none;html=1;entryX=0;entryY=0.5;entryDx=0;entryDy=0;exitX=1;exitY=0.5;exitDx=0;exitDy=0;strokeColor=#663400;" parent="1" source="KTEhq3X3tkaiahgWx3Sp-15" target="KTEhq3X3tkaiahgWx3Sp-260" edge="1">
          <mxGeometry width="50" height="50" relative="1" as="geometry">
            <mxPoint x="120" y="590" as="sourcePoint" />
            <mxPoint x="187.5000000000016" y="447.5" as="targetPoint" />
          </mxGeometry>
        </mxCell>
        <mxCell id="KTEhq3X3tkaiahgWx3Sp-308" value="" style="endArrow=none;html=1;entryX=0;entryY=0.5;entryDx=0;entryDy=0;strokeColor=#663400;" parent="1" target="KTEhq3X3tkaiahgWx3Sp-264" edge="1">
          <mxGeometry width="50" height="50" relative="1" as="geometry">
            <mxPoint x="110" y="680" as="sourcePoint" />
            <mxPoint x="187.5000000000016" y="447.5" as="targetPoint" />
          </mxGeometry>
        </mxCell>
        <mxCell id="KTEhq3X3tkaiahgWx3Sp-309" value="" style="endArrow=none;html=1;entryX=0;entryY=0.5;entryDx=0;entryDy=0;exitX=1;exitY=0.5;exitDx=0;exitDy=0;strokeColor=#663400;" parent="1" source="KTEhq3X3tkaiahgWx3Sp-15" target="KTEhq3X3tkaiahgWx3Sp-272" edge="1">
          <mxGeometry width="50" height="50" relative="1" as="geometry">
            <mxPoint x="120" y="690" as="sourcePoint" />
            <mxPoint x="187.5000000000016" y="497.5" as="targetPoint" />
          </mxGeometry>
        </mxCell>
        <mxCell id="KTEhq3X3tkaiahgWx3Sp-310" value="" style="endArrow=none;html=1;entryX=0;entryY=0.5;entryDx=0;entryDy=0;strokeColor=#663400;" parent="1" target="KTEhq3X3tkaiahgWx3Sp-268" edge="1">
          <mxGeometry width="50" height="50" relative="1" as="geometry">
            <mxPoint x="110" y="680" as="sourcePoint" />
            <mxPoint x="187.5000000000016" y="602.5" as="targetPoint" />
          </mxGeometry>
        </mxCell>
        <mxCell id="KTEhq3X3tkaiahgWx3Sp-311" value="" style="endArrow=none;html=1;entryX=0;entryY=0.5;entryDx=0;entryDy=0;exitX=1;exitY=0.5;exitDx=0;exitDy=0;strokeColor=#663400;" parent="1" source="KTEhq3X3tkaiahgWx3Sp-243" target="KTEhq3X3tkaiahgWx3Sp-44" edge="1">
          <mxGeometry width="50" height="50" relative="1" as="geometry">
            <mxPoint x="500" y="430" as="sourcePoint" />
            <mxPoint x="530" y="458" as="targetPoint" />
          </mxGeometry>
        </mxCell>
        <mxCell id="KTEhq3X3tkaiahgWx3Sp-312" value="" style="endArrow=none;html=1;entryX=0;entryY=0.5;entryDx=0;entryDy=0;exitX=1;exitY=0.5;exitDx=0;exitDy=0;strokeColor=#663400;" parent="1" source="KTEhq3X3tkaiahgWx3Sp-243" target="KTEhq3X3tkaiahgWx3Sp-45" edge="1">
          <mxGeometry width="50" height="50" relative="1" as="geometry">
            <mxPoint x="472.4999999999998" y="447.5" as="sourcePoint" />
            <mxPoint x="540" y="470" as="targetPoint" />
          </mxGeometry>
        </mxCell>
        <mxCell id="KTEhq3X3tkaiahgWx3Sp-313" value="" style="endArrow=none;html=1;entryX=0;entryY=0.5;entryDx=0;entryDy=0;exitX=1;exitY=0.5;exitDx=0;exitDy=0;strokeColor=#663400;" parent="1" source="KTEhq3X3tkaiahgWx3Sp-243" target="KTEhq3X3tkaiahgWx3Sp-46" edge="1">
          <mxGeometry width="50" height="50" relative="1" as="geometry">
            <mxPoint x="472.4999999999998" y="447.5" as="sourcePoint" />
            <mxPoint x="540" y="550" as="targetPoint" />
          </mxGeometry>
        </mxCell>
        <mxCell id="KTEhq3X3tkaiahgWx3Sp-314" value="" style="endArrow=none;html=1;entryX=0;entryY=0.5;entryDx=0;entryDy=0;exitX=1;exitY=0.5;exitDx=0;exitDy=0;strokeColor=#663400;" parent="1" source="KTEhq3X3tkaiahgWx3Sp-261" target="KTEhq3X3tkaiahgWx3Sp-44" edge="1">
          <mxGeometry width="50" height="50" relative="1" as="geometry">
            <mxPoint x="472.5000000000018" y="447.5" as="sourcePoint" />
            <mxPoint x="540" y="470" as="targetPoint" />
          </mxGeometry>
        </mxCell>
        <mxCell id="KTEhq3X3tkaiahgWx3Sp-315" value="" style="endArrow=none;html=1;entryX=0;entryY=0.5;entryDx=0;entryDy=0;exitX=1;exitY=0.5;exitDx=0;exitDy=0;strokeColor=#663400;" parent="1" source="KTEhq3X3tkaiahgWx3Sp-269" target="KTEhq3X3tkaiahgWx3Sp-44" edge="1">
          <mxGeometry width="50" height="50" relative="1" as="geometry">
            <mxPoint x="472.5000000000018" y="497.5" as="sourcePoint" />
            <mxPoint x="540" y="470" as="targetPoint" />
          </mxGeometry>
        </mxCell>
        <mxCell id="KTEhq3X3tkaiahgWx3Sp-316" value="" style="endArrow=none;html=1;entryX=0;entryY=0.5;entryDx=0;entryDy=0;exitX=1;exitY=0.5;exitDx=0;exitDy=0;strokeColor=#663400;" parent="1" source="KTEhq3X3tkaiahgWx3Sp-265" target="KTEhq3X3tkaiahgWx3Sp-44" edge="1">
          <mxGeometry width="50" height="50" relative="1" as="geometry">
            <mxPoint x="472.5000000000018" y="602.5" as="sourcePoint" />
            <mxPoint x="540" y="470" as="targetPoint" />
          </mxGeometry>
        </mxCell>
        <mxCell id="KTEhq3X3tkaiahgWx3Sp-317" value="" style="endArrow=none;html=1;entryX=0;entryY=0.5;entryDx=0;entryDy=0;exitX=1;exitY=0.5;exitDx=0;exitDy=0;strokeColor=#663400;" parent="1" source="KTEhq3X3tkaiahgWx3Sp-261" target="KTEhq3X3tkaiahgWx3Sp-45" edge="1">
          <mxGeometry width="50" height="50" relative="1" as="geometry">
            <mxPoint x="472.5000000000018" y="497.5" as="sourcePoint" />
            <mxPoint x="540" y="470" as="targetPoint" />
          </mxGeometry>
        </mxCell>
        <mxCell id="KTEhq3X3tkaiahgWx3Sp-318" value="" style="endArrow=none;html=1;entryX=0;entryY=0.5;entryDx=0;entryDy=0;exitX=1;exitY=0.5;exitDx=0;exitDy=0;strokeColor=#663400;" parent="1" source="KTEhq3X3tkaiahgWx3Sp-261" target="KTEhq3X3tkaiahgWx3Sp-46" edge="1">
          <mxGeometry width="50" height="50" relative="1" as="geometry">
            <mxPoint x="472.5000000000018" y="497.5" as="sourcePoint" />
            <mxPoint x="540" y="550" as="targetPoint" />
          </mxGeometry>
        </mxCell>
        <mxCell id="KTEhq3X3tkaiahgWx3Sp-319" value="" style="endArrow=none;html=1;entryX=0;entryY=0.5;entryDx=0;entryDy=0;exitX=1;exitY=0.5;exitDx=0;exitDy=0;strokeColor=#663400;" parent="1" source="KTEhq3X3tkaiahgWx3Sp-269" target="KTEhq3X3tkaiahgWx3Sp-45" edge="1">
          <mxGeometry width="50" height="50" relative="1" as="geometry">
            <mxPoint x="472.5000000000018" y="602.5" as="sourcePoint" />
            <mxPoint x="540" y="470" as="targetPoint" />
          </mxGeometry>
        </mxCell>
        <mxCell id="KTEhq3X3tkaiahgWx3Sp-320" value="" style="endArrow=none;html=1;entryX=0;entryY=0.5;entryDx=0;entryDy=0;exitX=1;exitY=0.5;exitDx=0;exitDy=0;strokeColor=#663400;" parent="1" source="KTEhq3X3tkaiahgWx3Sp-269" target="KTEhq3X3tkaiahgWx3Sp-46" edge="1">
          <mxGeometry width="50" height="50" relative="1" as="geometry">
            <mxPoint x="472.5000000000018" y="602.5" as="sourcePoint" />
            <mxPoint x="540" y="550" as="targetPoint" />
          </mxGeometry>
        </mxCell>
        <mxCell id="KTEhq3X3tkaiahgWx3Sp-321" value="" style="endArrow=none;html=1;entryX=0;entryY=0.5;entryDx=0;entryDy=0;exitX=1;exitY=0.5;exitDx=0;exitDy=0;strokeColor=#663400;" parent="1" source="KTEhq3X3tkaiahgWx3Sp-265" target="KTEhq3X3tkaiahgWx3Sp-45" edge="1">
          <mxGeometry width="50" height="50" relative="1" as="geometry">
            <mxPoint x="460" y="640" as="sourcePoint" />
            <mxPoint x="540" y="470" as="targetPoint" />
          </mxGeometry>
        </mxCell>
        <mxCell id="KTEhq3X3tkaiahgWx3Sp-322" value="" style="endArrow=none;html=1;exitX=1;exitY=0.5;exitDx=0;exitDy=0;strokeColor=#663400;" parent="1" source="KTEhq3X3tkaiahgWx3Sp-265" edge="1">
          <mxGeometry width="50" height="50" relative="1" as="geometry">
            <mxPoint x="472.5000000000018" y="652.5" as="sourcePoint" />
            <mxPoint x="530" y="620" as="targetPoint" />
          </mxGeometry>
        </mxCell>
        <mxCell id="KTEhq3X3tkaiahgWx3Sp-323" value="" style="endArrow=none;html=1;entryX=0;entryY=0.5;entryDx=0;entryDy=0;exitX=1;exitY=0.5;exitDx=0;exitDy=0;strokeColor=#663400;" parent="1" source="KTEhq3X3tkaiahgWx3Sp-48" target="KTEhq3X3tkaiahgWx3Sp-277" edge="1">
          <mxGeometry width="50" height="50" relative="1" as="geometry">
            <mxPoint x="589.9999999999991" y="262.5" as="sourcePoint" />
            <mxPoint x="657.5" y="285" as="targetPoint" />
          </mxGeometry>
        </mxCell>
        <mxCell id="KTEhq3X3tkaiahgWx3Sp-325" value="" style="endArrow=none;html=1;entryX=0;entryY=0.5;entryDx=0;entryDy=0;exitX=1;exitY=0.5;exitDx=0;exitDy=0;strokeColor=#663400;" parent="1" source="KTEhq3X3tkaiahgWx3Sp-48" target="KTEhq3X3tkaiahgWx3Sp-281" edge="1">
          <mxGeometry width="50" height="50" relative="1" as="geometry">
            <mxPoint x="600" y="150" as="sourcePoint" />
            <mxPoint x="667.5" y="267.5" as="targetPoint" />
          </mxGeometry>
        </mxCell>
        <mxCell id="KTEhq3X3tkaiahgWx3Sp-326" value="" style="endArrow=none;html=1;entryX=0;entryY=0.5;entryDx=0;entryDy=0;exitX=1;exitY=0.5;exitDx=0;exitDy=0;strokeColor=#663400;" parent="1" source="KTEhq3X3tkaiahgWx3Sp-48" target="KTEhq3X3tkaiahgWx3Sp-289" edge="1">
          <mxGeometry width="50" height="50" relative="1" as="geometry">
            <mxPoint x="600" y="150" as="sourcePoint" />
            <mxPoint x="667.5" y="317.5" as="targetPoint" />
          </mxGeometry>
        </mxCell>
        <mxCell id="KTEhq3X3tkaiahgWx3Sp-327" value="" style="endArrow=none;html=1;entryX=0;entryY=0.5;entryDx=0;entryDy=0;exitX=1;exitY=0.5;exitDx=0;exitDy=0;strokeColor=#663400;" parent="1" source="KTEhq3X3tkaiahgWx3Sp-48" target="KTEhq3X3tkaiahgWx3Sp-285" edge="1">
          <mxGeometry width="50" height="50" relative="1" as="geometry">
            <mxPoint x="600" y="150" as="sourcePoint" />
            <mxPoint x="667.5" y="422.5" as="targetPoint" />
          </mxGeometry>
        </mxCell>
        <mxCell id="KTEhq3X3tkaiahgWx3Sp-328" value="" style="endArrow=none;html=1;entryX=0;entryY=0.5;entryDx=0;entryDy=0;exitX=1;exitY=0.5;exitDx=0;exitDy=0;strokeColor=#663400;" parent="1" source="KTEhq3X3tkaiahgWx3Sp-49" target="KTEhq3X3tkaiahgWx3Sp-277" edge="1">
          <mxGeometry width="50" height="50" relative="1" as="geometry">
            <mxPoint x="600" y="150" as="sourcePoint" />
            <mxPoint x="667.5" y="267.5" as="targetPoint" />
          </mxGeometry>
        </mxCell>
        <mxCell id="KTEhq3X3tkaiahgWx3Sp-329" value="" style="endArrow=none;html=1;entryX=0;entryY=0.5;entryDx=0;entryDy=0;exitX=1;exitY=0.5;exitDx=0;exitDy=0;strokeColor=#663400;" parent="1" source="KTEhq3X3tkaiahgWx3Sp-49" target="KTEhq3X3tkaiahgWx3Sp-281" edge="1">
          <mxGeometry width="50" height="50" relative="1" as="geometry">
            <mxPoint x="600" y="230" as="sourcePoint" />
            <mxPoint x="667.5" y="267.5" as="targetPoint" />
          </mxGeometry>
        </mxCell>
        <mxCell id="KTEhq3X3tkaiahgWx3Sp-330" value="" style="endArrow=none;html=1;entryX=0;entryY=0.5;entryDx=0;entryDy=0;exitX=1;exitY=0.5;exitDx=0;exitDy=0;strokeColor=#663400;" parent="1" source="KTEhq3X3tkaiahgWx3Sp-49" target="KTEhq3X3tkaiahgWx3Sp-289" edge="1">
          <mxGeometry width="50" height="50" relative="1" as="geometry">
            <mxPoint x="600" y="230" as="sourcePoint" />
            <mxPoint x="667.5" y="317.5" as="targetPoint" />
          </mxGeometry>
        </mxCell>
        <mxCell id="KTEhq3X3tkaiahgWx3Sp-331" value="" style="endArrow=none;html=1;entryX=0;entryY=0.5;entryDx=0;entryDy=0;exitX=1;exitY=0.5;exitDx=0;exitDy=0;strokeColor=#663400;" parent="1" source="KTEhq3X3tkaiahgWx3Sp-49" target="KTEhq3X3tkaiahgWx3Sp-285" edge="1">
          <mxGeometry width="50" height="50" relative="1" as="geometry">
            <mxPoint x="600" y="230" as="sourcePoint" />
            <mxPoint x="667.5" y="422.5" as="targetPoint" />
          </mxGeometry>
        </mxCell>
        <mxCell id="KTEhq3X3tkaiahgWx3Sp-332" value="" style="endArrow=none;html=1;entryX=0;entryY=0.5;entryDx=0;entryDy=0;exitX=1;exitY=0.5;exitDx=0;exitDy=0;strokeColor=#663400;" parent="1" source="KTEhq3X3tkaiahgWx3Sp-50" target="KTEhq3X3tkaiahgWx3Sp-277" edge="1">
          <mxGeometry width="50" height="50" relative="1" as="geometry">
            <mxPoint x="600" y="150" as="sourcePoint" />
            <mxPoint x="667.5000000000005" y="267.5" as="targetPoint" />
          </mxGeometry>
        </mxCell>
        <mxCell id="KTEhq3X3tkaiahgWx3Sp-333" value="" style="endArrow=none;html=1;entryX=0;entryY=0.5;entryDx=0;entryDy=0;exitX=1;exitY=0.5;exitDx=0;exitDy=0;strokeColor=#663400;" parent="1" source="KTEhq3X3tkaiahgWx3Sp-50" target="KTEhq3X3tkaiahgWx3Sp-281" edge="1">
          <mxGeometry width="50" height="50" relative="1" as="geometry">
            <mxPoint x="600" y="310" as="sourcePoint" />
            <mxPoint x="667.5000000000005" y="267.5" as="targetPoint" />
          </mxGeometry>
        </mxCell>
        <mxCell id="KTEhq3X3tkaiahgWx3Sp-334" value="" style="endArrow=none;html=1;entryX=0;entryY=0.5;entryDx=0;entryDy=0;exitX=1;exitY=0.5;exitDx=0;exitDy=0;strokeColor=#663400;" parent="1" source="KTEhq3X3tkaiahgWx3Sp-50" target="KTEhq3X3tkaiahgWx3Sp-289" edge="1">
          <mxGeometry width="50" height="50" relative="1" as="geometry">
            <mxPoint x="600" y="310" as="sourcePoint" />
            <mxPoint x="667.5000000000005" y="317.5" as="targetPoint" />
          </mxGeometry>
        </mxCell>
        <mxCell id="KTEhq3X3tkaiahgWx3Sp-335" value="" style="endArrow=none;html=1;entryX=0;entryY=0.5;entryDx=0;entryDy=0;exitX=1;exitY=0.5;exitDx=0;exitDy=0;strokeColor=#663400;" parent="1" source="KTEhq3X3tkaiahgWx3Sp-50" target="KTEhq3X3tkaiahgWx3Sp-285" edge="1">
          <mxGeometry width="50" height="50" relative="1" as="geometry">
            <mxPoint x="600" y="310" as="sourcePoint" />
            <mxPoint x="667.5000000000005" y="422.5" as="targetPoint" />
          </mxGeometry>
        </mxCell>
        <mxCell id="KTEhq3X3tkaiahgWx3Sp-336" value="" style="endArrow=none;html=1;entryX=0;entryY=0.5;entryDx=0;entryDy=0;exitX=1;exitY=0.5;exitDx=0;exitDy=0;strokeColor=#663400;" parent="1" source="KTEhq3X3tkaiahgWx3Sp-44" target="KTEhq3X3tkaiahgWx3Sp-277" edge="1">
          <mxGeometry width="50" height="50" relative="1" as="geometry">
            <mxPoint x="600" y="310" as="sourcePoint" />
            <mxPoint x="667.5000000000005" y="267.5" as="targetPoint" />
          </mxGeometry>
        </mxCell>
        <mxCell id="KTEhq3X3tkaiahgWx3Sp-337" value="" style="endArrow=none;html=1;entryX=0;entryY=0.5;entryDx=0;entryDy=0;strokeColor=#663400;" parent="1" target="KTEhq3X3tkaiahgWx3Sp-281" edge="1">
          <mxGeometry width="50" height="50" relative="1" as="geometry">
            <mxPoint x="590" y="460" as="sourcePoint" />
            <mxPoint x="667.5000000000005" y="267.5" as="targetPoint" />
          </mxGeometry>
        </mxCell>
        <mxCell id="KTEhq3X3tkaiahgWx3Sp-338" value="" style="endArrow=none;html=1;entryX=0;entryY=0.5;entryDx=0;entryDy=0;exitX=1;exitY=0.5;exitDx=0;exitDy=0;strokeColor=#663400;" parent="1" source="KTEhq3X3tkaiahgWx3Sp-44" target="KTEhq3X3tkaiahgWx3Sp-289" edge="1">
          <mxGeometry width="50" height="50" relative="1" as="geometry">
            <mxPoint x="600" y="470" as="sourcePoint" />
            <mxPoint x="667.4999999999982" y="317.5" as="targetPoint" />
          </mxGeometry>
        </mxCell>
        <mxCell id="KTEhq3X3tkaiahgWx3Sp-339" value="" style="endArrow=none;html=1;entryX=0;entryY=0.5;entryDx=0;entryDy=0;exitX=1;exitY=0.5;exitDx=0;exitDy=0;strokeColor=#663400;" parent="1" source="KTEhq3X3tkaiahgWx3Sp-44" target="KTEhq3X3tkaiahgWx3Sp-285" edge="1">
          <mxGeometry width="50" height="50" relative="1" as="geometry">
            <mxPoint x="600" y="470" as="sourcePoint" />
            <mxPoint x="667.5000000000005" y="422.5" as="targetPoint" />
          </mxGeometry>
        </mxCell>
        <mxCell id="KTEhq3X3tkaiahgWx3Sp-340" value="" style="endArrow=none;html=1;entryX=0;entryY=0.5;entryDx=0;entryDy=0;exitX=1;exitY=0.5;exitDx=0;exitDy=0;strokeColor=#663400;" parent="1" source="KTEhq3X3tkaiahgWx3Sp-45" target="KTEhq3X3tkaiahgWx3Sp-277" edge="1">
          <mxGeometry width="50" height="50" relative="1" as="geometry">
            <mxPoint x="600" y="470" as="sourcePoint" />
            <mxPoint x="667.5" y="267.5" as="targetPoint" />
          </mxGeometry>
        </mxCell>
        <mxCell id="KTEhq3X3tkaiahgWx3Sp-341" value="" style="endArrow=none;html=1;entryX=0;entryY=0.5;entryDx=0;entryDy=0;exitX=1;exitY=0.5;exitDx=0;exitDy=0;strokeColor=#663400;" parent="1" source="KTEhq3X3tkaiahgWx3Sp-45" target="KTEhq3X3tkaiahgWx3Sp-281" edge="1">
          <mxGeometry width="50" height="50" relative="1" as="geometry">
            <mxPoint x="600" y="550" as="sourcePoint" />
            <mxPoint x="667.5" y="267.5" as="targetPoint" />
          </mxGeometry>
        </mxCell>
        <mxCell id="KTEhq3X3tkaiahgWx3Sp-342" value="" style="endArrow=none;html=1;entryX=0;entryY=0.5;entryDx=0;entryDy=0;exitX=1;exitY=0.5;exitDx=0;exitDy=0;strokeColor=#663400;" parent="1" source="KTEhq3X3tkaiahgWx3Sp-45" target="KTEhq3X3tkaiahgWx3Sp-289" edge="1">
          <mxGeometry width="50" height="50" relative="1" as="geometry">
            <mxPoint x="600" y="550" as="sourcePoint" />
            <mxPoint x="667.5" y="317.5" as="targetPoint" />
          </mxGeometry>
        </mxCell>
        <mxCell id="KTEhq3X3tkaiahgWx3Sp-343" value="" style="endArrow=none;html=1;entryX=0;entryY=0.5;entryDx=0;entryDy=0;exitX=1;exitY=0.5;exitDx=0;exitDy=0;strokeColor=#663400;" parent="1" source="KTEhq3X3tkaiahgWx3Sp-45" target="KTEhq3X3tkaiahgWx3Sp-285" edge="1">
          <mxGeometry width="50" height="50" relative="1" as="geometry">
            <mxPoint x="600" y="550" as="sourcePoint" />
            <mxPoint x="667.5" y="422.5" as="targetPoint" />
          </mxGeometry>
        </mxCell>
        <mxCell id="KTEhq3X3tkaiahgWx3Sp-344" value="" style="endArrow=none;html=1;entryX=0;entryY=0.5;entryDx=0;entryDy=0;exitX=1;exitY=0.5;exitDx=0;exitDy=0;strokeColor=#663400;" parent="1" source="KTEhq3X3tkaiahgWx3Sp-46" target="KTEhq3X3tkaiahgWx3Sp-277" edge="1">
          <mxGeometry width="50" height="50" relative="1" as="geometry">
            <mxPoint x="600" y="550" as="sourcePoint" />
            <mxPoint x="667.5" y="267.5" as="targetPoint" />
          </mxGeometry>
        </mxCell>
        <mxCell id="KTEhq3X3tkaiahgWx3Sp-345" value="" style="endArrow=none;html=1;exitX=1;exitY=0.5;exitDx=0;exitDy=0;entryX=0;entryY=0.5;entryDx=0;entryDy=0;strokeColor=#663400;" parent="1" source="KTEhq3X3tkaiahgWx3Sp-46" target="KTEhq3X3tkaiahgWx3Sp-281" edge="1">
          <mxGeometry width="50" height="50" relative="1" as="geometry">
            <mxPoint x="600" y="630" as="sourcePoint" />
            <mxPoint x="660" y="310" as="targetPoint" />
          </mxGeometry>
        </mxCell>
        <mxCell id="KTEhq3X3tkaiahgWx3Sp-346" value="" style="endArrow=none;html=1;exitX=1;exitY=0.5;exitDx=0;exitDy=0;entryX=0;entryY=0.5;entryDx=0;entryDy=0;strokeColor=#663400;" parent="1" source="KTEhq3X3tkaiahgWx3Sp-46" target="KTEhq3X3tkaiahgWx3Sp-289" edge="1">
          <mxGeometry width="50" height="50" relative="1" as="geometry">
            <mxPoint x="600" y="630" as="sourcePoint" />
            <mxPoint x="670" y="320" as="targetPoint" />
          </mxGeometry>
        </mxCell>
        <mxCell id="KTEhq3X3tkaiahgWx3Sp-347" value="" style="endArrow=none;html=1;entryX=0;entryY=0.5;entryDx=0;entryDy=0;strokeColor=#663400;" parent="1" target="KTEhq3X3tkaiahgWx3Sp-285" edge="1">
          <mxGeometry width="50" height="50" relative="1" as="geometry">
            <mxPoint x="590" y="620" as="sourcePoint" />
            <mxPoint x="667.5" y="422.5" as="targetPoint" />
          </mxGeometry>
        </mxCell>
        <mxCell id="KTEhq3X3tkaiahgWx3Sp-348" value="" style="endArrow=none;html=1;strokeColor=#000000;exitX=1;exitY=0.5;exitDx=0;exitDy=0;entryX=0;entryY=0.5;entryDx=0;entryDy=0;" parent="1" source="KTEhq3X3tkaiahgWx3Sp-274" target="KTEhq3X3tkaiahgWx3Sp-70" edge="1">
          <mxGeometry width="50" height="50" relative="1" as="geometry">
            <mxPoint x="990" y="260" as="sourcePoint" />
            <mxPoint x="1010" y="300" as="targetPoint" />
          </mxGeometry>
        </mxCell>
        <mxCell id="KTEhq3X3tkaiahgWx3Sp-349" value="" style="endArrow=none;html=1;strokeColor=#000000;exitX=1;exitY=0.5;exitDx=0;exitDy=0;" parent="1" source="KTEhq3X3tkaiahgWx3Sp-278" edge="1">
          <mxGeometry width="50" height="50" relative="1" as="geometry">
            <mxPoint x="952.5" y="270" as="sourcePoint" />
            <mxPoint x="1010" y="360" as="targetPoint" />
          </mxGeometry>
        </mxCell>
        <mxCell id="KTEhq3X3tkaiahgWx3Sp-350" value="" style="endArrow=none;html=1;strokeColor=#000000;exitX=1;exitY=0.5;exitDx=0;exitDy=0;entryX=0;entryY=0.5;entryDx=0;entryDy=0;" parent="1" source="KTEhq3X3tkaiahgWx3Sp-286" target="KTEhq3X3tkaiahgWx3Sp-70" edge="1">
          <mxGeometry width="50" height="50" relative="1" as="geometry">
            <mxPoint x="952.5" y="317.5" as="sourcePoint" />
            <mxPoint x="1020" y="370" as="targetPoint" />
          </mxGeometry>
        </mxCell>
        <mxCell id="KTEhq3X3tkaiahgWx3Sp-351" value="" style="endArrow=none;html=1;strokeColor=#000000;exitX=1;exitY=0.5;exitDx=0;exitDy=0;entryX=0;entryY=0.5;entryDx=0;entryDy=0;" parent="1" source="KTEhq3X3tkaiahgWx3Sp-282" target="KTEhq3X3tkaiahgWx3Sp-70" edge="1">
          <mxGeometry width="50" height="50" relative="1" as="geometry">
            <mxPoint x="952.5" y="422.5" as="sourcePoint" />
            <mxPoint x="1020" y="370" as="targetPoint" />
          </mxGeometry>
        </mxCell>
        <mxCell id="KTEhq3X3tkaiahgWx3Sp-290" value="" style="rounded=0;whiteSpace=wrap;html=1;gradientColor=none;fillColor=none;dashed=1;strokeWidth=2;strokeColor=#FF3333;" parent="1" vertex="1">
          <mxGeometry x="10" y="360" width="610" height="407" as="geometry" />
        </mxCell>
        <mxCell id="KTEhq3X3tkaiahgWx3Sp-353" value="" style="endArrow=none;html=1;entryX=0;entryY=0.5;entryDx=0;entryDy=0;strokeColor=#663400;" parent="1" target="KTEhq3X3tkaiahgWx3Sp-260" edge="1">
          <mxGeometry width="50" height="50" relative="1" as="geometry">
            <mxPoint x="110" y="500" as="sourcePoint" />
            <mxPoint x="187.5000000000016" y="497.5" as="targetPoint" />
          </mxGeometry>
        </mxCell>
        <mxCell id="IedycRf1UBU2z4kwEZDF-1" value="&lt;p style=&quot;font-size: 27px&quot;&gt;&lt;font style=&quot;font-size: 27px&quot; color=&quot;#97D077&quot;&gt;A&lt;sub&gt;1&lt;/sub&gt;&lt;/font&gt;&lt;/p&gt;" style="text;html=1;resizable=0;autosize=1;align=center;verticalAlign=middle;points=[];fillColor=none;strokeColor=none;rounded=0;" vertex="1" parent="1">
          <mxGeometry x="58" y="381" width="41" height="79" as="geometry" />
        </mxCell>
        <mxCell id="IedycRf1UBU2z4kwEZDF-2" value="&lt;p style=&quot;font-size: 27px&quot;&gt;&lt;font style=&quot;font-size: 27px&quot; color=&quot;#97D077&quot;&gt;A&lt;sub&gt;2&lt;/sub&gt;&lt;/font&gt;&lt;/p&gt;" style="text;html=1;resizable=0;autosize=1;align=center;verticalAlign=middle;points=[];fillColor=none;strokeColor=none;rounded=0;" vertex="1" parent="1">
          <mxGeometry x="59.5" y="460.5" width="41" height="79" as="geometry" />
        </mxCell>
        <mxCell id="IedycRf1UBU2z4kwEZDF-3" value="&lt;p style=&quot;font-size: 27px&quot;&gt;&lt;font style=&quot;font-size: 27px&quot; color=&quot;#97D077&quot;&gt;A&lt;sub&gt;3&lt;/sub&gt;&lt;/font&gt;&lt;/p&gt;" style="text;html=1;resizable=0;autosize=1;align=center;verticalAlign=middle;points=[];fillColor=none;strokeColor=none;rounded=0;" vertex="1" parent="1">
          <mxGeometry x="59.5" y="540.5" width="41" height="79" as="geometry" />
        </mxCell>
        <mxCell id="IedycRf1UBU2z4kwEZDF-4" value="&lt;p style=&quot;font-size: 27px&quot;&gt;&lt;font style=&quot;font-size: 27px&quot; color=&quot;#97D077&quot;&gt;A&lt;sub&gt;1&lt;/sub&gt;&lt;/font&gt;&lt;/p&gt;" style="text;html=1;resizable=0;autosize=1;align=center;verticalAlign=middle;points=[];fillColor=none;strokeColor=none;rounded=0;" vertex="1" parent="1">
          <mxGeometry x="539.5" y="100.5" width="41" height="79" as="geometry" />
        </mxCell>
        <mxCell id="IedycRf1UBU2z4kwEZDF-5" value="&lt;p style=&quot;font-size: 27px&quot;&gt;&lt;font style=&quot;font-size: 27px&quot; color=&quot;#97D077&quot;&gt;A&lt;sub&gt;2&lt;/sub&gt;&lt;/font&gt;&lt;/p&gt;" style="text;html=1;resizable=0;autosize=1;align=center;verticalAlign=middle;points=[];fillColor=none;strokeColor=none;rounded=0;" vertex="1" parent="1">
          <mxGeometry x="539.5" y="180.5" width="41" height="79" as="geometry" />
        </mxCell>
        <mxCell id="IedycRf1UBU2z4kwEZDF-6" value="&lt;p style=&quot;font-size: 27px&quot;&gt;&lt;font style=&quot;font-size: 27px&quot; color=&quot;#97D077&quot;&gt;A&lt;sub&gt;3&lt;/sub&gt;&lt;/font&gt;&lt;/p&gt;" style="text;html=1;resizable=0;autosize=1;align=center;verticalAlign=middle;points=[];fillColor=none;strokeColor=none;rounded=0;" vertex="1" parent="1">
          <mxGeometry x="539.5" y="260.5" width="41" height="79" as="geometry" />
        </mxCell>
        <mxCell id="IedycRf1UBU2z4kwEZDF-7" value="&lt;p style=&quot;font-size: 27px&quot;&gt;&lt;font style=&quot;font-size: 27px&quot; color=&quot;#FFB366&quot;&gt;B&lt;sub&gt;1&lt;/sub&gt;&lt;/font&gt;&lt;/p&gt;" style="text;html=1;resizable=0;autosize=1;align=center;verticalAlign=middle;points=[];fillColor=none;strokeColor=none;rounded=0;" vertex="1" parent="1">
          <mxGeometry x="539.5" y="423" width="41" height="79" as="geometry" />
        </mxCell>
        <mxCell id="IedycRf1UBU2z4kwEZDF-8" value="&lt;p style=&quot;font-size: 27px&quot;&gt;&lt;font style=&quot;font-size: 27px&quot; color=&quot;#FFB366&quot;&gt;B&lt;sub&gt;2&lt;/sub&gt;&lt;/font&gt;&lt;/p&gt;" style="text;html=1;resizable=0;autosize=1;align=center;verticalAlign=middle;points=[];fillColor=none;strokeColor=none;rounded=0;" vertex="1" parent="1">
          <mxGeometry x="539.5" y="500.5" width="41" height="79" as="geometry" />
        </mxCell>
        <mxCell id="IedycRf1UBU2z4kwEZDF-9" value="&lt;p style=&quot;font-size: 27px&quot;&gt;&lt;font style=&quot;font-size: 27px&quot; color=&quot;#FFB366&quot;&gt;B&lt;sub&gt;3&lt;/sub&gt;&lt;/font&gt;&lt;/p&gt;" style="text;html=1;resizable=0;autosize=1;align=center;verticalAlign=middle;points=[];fillColor=none;strokeColor=none;rounded=0;" vertex="1" parent="1">
          <mxGeometry x="539.5" y="580.5" width="41" height="79" as="geometry" />
        </mxCell>
        <mxCell id="IedycRf1UBU2z4kwEZDF-10" value="&lt;p style=&quot;font-size: 27px&quot;&gt;&lt;font color=&quot;#FF9933&quot;&gt;&lt;sub&gt;Cor&lt;/sub&gt;&lt;br&gt;&lt;/font&gt;&lt;/p&gt;" style="text;html=1;resizable=0;autosize=1;align=center;verticalAlign=middle;points=[];fillColor=none;strokeColor=none;rounded=0;" vertex="1" parent="1">
          <mxGeometry x="55.5" y="635" width="46" height="79" as="geometry" />
        </mxCell>
        <mxCell id="IedycRf1UBU2z4kwEZDF-11" value="&lt;p style=&quot;font-size: 27px&quot;&gt;&lt;font color=&quot;#FF9933&quot;&gt;&lt;sub&gt;Cor&lt;/sub&gt;&lt;br&gt;&lt;/font&gt;&lt;/p&gt;" style="text;html=1;resizable=0;autosize=1;align=center;verticalAlign=middle;points=[];fillColor=none;strokeColor=none;rounded=0;" vertex="1" parent="1">
          <mxGeometry x="1017" y="314" width="46" height="79" as="geometry" />
        </mxCell>
        <mxCell id="IedycRf1UBU2z4kwEZDF-13" value="&lt;p style=&quot;font-size: 27px&quot;&gt;&lt;font style=&quot;font-size: 27px&quot; color=&quot;#3333FF&quot;&gt;Pretrained forward network&lt;/font&gt;&lt;/p&gt;" style="text;html=1;resizable=0;autosize=1;align=center;verticalAlign=middle;points=[];fillColor=none;strokeColor=none;rounded=0;" vertex="1" parent="1">
          <mxGeometry x="669" y="604" width="334" height="72" as="geometry" />
        </mxCell>
        <mxCell id="IedycRf1UBU2z4kwEZDF-14" value="&lt;p style=&quot;font-size: 27px&quot;&gt;&lt;font style=&quot;font-size: 27px&quot; color=&quot;#D9260B&quot;&gt;Inverse network&lt;/font&gt;&lt;/p&gt;" style="text;html=1;resizable=0;autosize=1;align=center;verticalAlign=middle;points=[];fillColor=none;strokeColor=none;rounded=0;" vertex="1" parent="1">
          <mxGeometry x="270" y="706" width="201" height="72" as="geometry" />
        </mxCell>
        <mxCell id="IedycRf1UBU2z4kwEZDF-15" value="&lt;p style=&quot;font-size: 27px&quot;&gt;&lt;font style=&quot;font-size: 27px&quot; color=&quot;#1A1A1A&quot;&gt;Tandem network&lt;/font&gt;&lt;/p&gt;" style="text;html=1;resizable=0;autosize=1;align=center;verticalAlign=middle;points=[];fillColor=none;strokeColor=none;rounded=0;" vertex="1" parent="1">
          <mxGeometry x="456.5" y="757" width="208" height="72" as="geometry" />
        </mxCell>
        <mxCell id="IedycRf1UBU2z4kwEZDF-16" value="&lt;p style=&quot;font-size: 27px&quot;&gt;&lt;font style=&quot;font-size: 27px&quot;&gt;x500&amp;nbsp;&amp;nbsp; x500&amp;nbsp;&amp;nbsp; x500&amp;nbsp;&amp;nbsp; x500&lt;/font&gt;&lt;/p&gt;" style="text;html=1;resizable=0;autosize=1;align=center;verticalAlign=middle;points=[];fillColor=none;strokeColor=none;rounded=0;" vertex="1" parent="1">
          <mxGeometry x="159" y="504" width="312" height="72" as="geometry" />
        </mxCell>
        <mxCell id="IedycRf1UBU2z4kwEZDF-17" value="&lt;p style=&quot;font-size: 25px&quot;&gt;&lt;font style=&quot;font-size: 25px&quot;&gt;x1000 x1000 x1000 x1000&lt;/font&gt;&lt;/p&gt;" style="text;html=1;resizable=0;autosize=1;align=center;verticalAlign=middle;points=[];fillColor=none;strokeColor=none;rounded=0;" vertex="1" parent="1">
          <mxGeometry x="648.5" y="326" width="303" height="68" as="geometry" />
        </mxCell>
        <mxCell id="IedycRf1UBU2z4kwEZDF-18" value="&lt;p style=&quot;font-size: 21px&quot;&gt;&lt;font style=&quot;font-size: 21px&quot; color=&quot;#1A1A1A&quot;&gt;Input layer&lt;/font&gt;&lt;font style=&quot;font-size: 21px&quot;&gt;&lt;br&gt;&lt;/font&gt;&lt;/p&gt;" style="text;html=1;resizable=0;autosize=1;align=center;verticalAlign=middle;points=[];fillColor=none;strokeColor=none;rounded=0;" vertex="1" parent="1">
          <mxGeometry x="26" y="708" width="108" height="60" as="geometry" />
        </mxCell>
        <mxCell id="IedycRf1UBU2z4kwEZDF-19" value="&lt;p style=&quot;font-size: 21px&quot;&gt;&lt;font style=&quot;font-size: 21px&quot; color=&quot;#1A1A1A&quot;&gt;Hidden layer&lt;/font&gt;&lt;font style=&quot;font-size: 21px&quot;&gt;&lt;br&gt;&lt;/font&gt;&lt;/p&gt;" style="text;html=1;resizable=0;autosize=1;align=center;verticalAlign=middle;points=[];fillColor=none;strokeColor=none;rounded=0;" vertex="1" parent="1">
          <mxGeometry x="256" y="666" width="128" height="60" as="geometry" />
        </mxCell>
        <mxCell id="IedycRf1UBU2z4kwEZDF-20" value="&lt;p style=&quot;font-size: 21px&quot;&gt;&lt;font style=&quot;font-size: 21px&quot; color=&quot;#1A1A1A&quot;&gt;Output layer&lt;/font&gt;&lt;font style=&quot;font-size: 21px&quot;&gt;&lt;br&gt;&lt;/font&gt;&lt;/p&gt;" style="text;html=1;resizable=0;autosize=1;align=center;verticalAlign=middle;points=[];fillColor=none;strokeColor=none;rounded=0;" vertex="1" parent="1">
          <mxGeometry x="495" y="659.5" width="124" height="60" as="geometry" />
        </mxCell>
        <mxCell id="IedycRf1UBU2z4kwEZDF-21" value="&lt;p style=&quot;font-size: 21px&quot;&gt;&lt;font style=&quot;font-size: 21px&quot; color=&quot;#1A1A1A&quot;&gt;Input layer&lt;/font&gt;&lt;font style=&quot;font-size: 21px&quot;&gt;&lt;br&gt;&lt;/font&gt;&lt;/p&gt;" style="text;html=1;resizable=0;autosize=1;align=center;verticalAlign=middle;points=[];fillColor=none;strokeColor=none;rounded=0;" vertex="1" parent="1">
          <mxGeometry x="506" y="40" width="108" height="60" as="geometry" />
        </mxCell>
        <mxCell id="IedycRf1UBU2z4kwEZDF-22" value="&lt;p style=&quot;font-size: 21px&quot;&gt;&lt;font style=&quot;font-size: 21px&quot; color=&quot;#1A1A1A&quot;&gt;Hidden layer&lt;/font&gt;&lt;font style=&quot;font-size: 21px&quot;&gt;&lt;br&gt;&lt;/font&gt;&lt;/p&gt;" style="text;html=1;resizable=0;autosize=1;align=center;verticalAlign=middle;points=[];fillColor=none;strokeColor=none;rounded=0;" vertex="1" parent="1">
          <mxGeometry x="733.5" y="160" width="128" height="60" as="geometry" />
        </mxCell>
        <mxCell id="IedycRf1UBU2z4kwEZDF-23" value="&lt;p style=&quot;font-size: 21px&quot;&gt;&lt;font style=&quot;font-size: 21px&quot; color=&quot;#1A1A1A&quot;&gt;Output layer&lt;/font&gt;&lt;font style=&quot;font-size: 21px&quot;&gt;&lt;br&gt;&lt;/font&gt;&lt;/p&gt;" style="text;html=1;resizable=0;autosize=1;align=center;verticalAlign=middle;points=[];fillColor=none;strokeColor=none;rounded=0;" vertex="1" parent="1">
          <mxGeometry x="978" y="241" width="124" height="60" as="geometry" />
        </mxCell>
      </root>
    </mxGraphModel>
  </diagram>
</mxfile>
